<svg width="40" height="40" viewBox="0 0 40 40" fill="none" xmlns="http://www.w3.org/2000/svg">
<path d="M36.2361 21.8435C33.9951 21.0315 31.5091 21.212 29.4072 22.3374L25.9807 23.8788C25.7038 22.3007 24.4918 21.1148 22.9958 21.0692C22.987 21.069 17.8582 21.0111 17.8582 21.0111C13.7531 19.885 11.0857 21.332 9.56409 22.7579C9.25289 23.0496 8.97922 23.3498 8.73836 23.646C8.32776 23.2038 7.60298 23.0856 7.07443 23.3762L2.41879 25.9354C1.81494 26.2674 1.55221 26.9956 1.80545 27.6358L6.35537 39.1377C6.65434 39.8934 7.57315 40.2274 8.29007 39.8333L12.9457 37.2742C13.3821 37.0343 13.639 36.5873 13.6531 36.1162H20.6017C21.7351 36.1162 22.8541 35.8185 23.8377 35.2553C23.8377 35.2553 36.9061 27.7589 36.9798 27.6919C38.8099 26.027 38.8663 22.7966 36.2361 21.8435C37.2853 22.2237 33.9951 21.0315 36.2361 21.8435ZM8.33169 36.688L4.79631 27.7508L7.03255 26.5216L10.5679 35.4588L8.33169 36.688ZM35.2311 25.5773L22.4743 32.8826C21.9049 33.2087 21.2573 33.381 20.6014 33.381H12.6914L10.0355 26.667C10.2631 26.2034 10.7112 25.4342 11.439 24.7522C12.9295 23.3555 14.8941 22.998 17.2786 23.6898C17.3978 23.7244 17.5213 23.7427 17.6454 23.7441L22.9175 23.8034C23.0521 23.815 23.3006 24.1143 23.3006 24.5679C23.3006 25.035 23.044 25.3327 22.9098 25.3327H17.7297V28.0679H22.9098C23.5515 28.0679 24.1487 27.8509 24.6458 27.4791L30.5774 24.8109C30.6089 24.7968 30.6396 24.7815 30.6699 24.765C32.0928 23.9914 33.781 23.8636 35.3014 24.4145C35.903 24.6327 35.4684 25.3364 35.2311 25.5773ZM26.9995 19.7079C21.5664 19.7079 17.1462 15.2874 17.1462 9.85393C17.1462 4.42051 21.5663 0 26.9995 0C32.4326 0 36.8527 4.42051 36.8527 9.85393C36.8527 15.2874 32.4325 19.7079 26.9995 19.7079ZM26.9995 2.73521C23.077 2.73521 19.8859 5.92863 19.8859 9.85393C19.8859 13.7792 23.0771 16.9727 26.9995 16.9727C30.922 16.9727 34.1131 13.7791 34.1131 9.85393C34.1131 5.92872 30.9219 2.73521 26.9995 2.73521Z" fill="#C1BBEB"/>
<path d="M27.6358 8.73926C26.5464 8.29191 26.4622 8.09969 26.4622 7.87687C26.4622 7.73456 26.5328 7.40371 27.1871 7.40371C27.7857 7.40371 28.5315 7.73969 29.0575 8.08593L29.7892 6.16798C29.2668 5.83542 28.6319 5.54969 28.0383 5.45832V4.21106H26.0874V5.57969C24.9284 5.94499 24.2142 6.87149 24.2142 8.02482C24.2142 9.55234 25.4363 10.2343 26.6299 10.6992C27.5836 11.0829 27.6635 11.3765 27.6635 11.6217C27.6635 11.9989 27.3159 12.2426 26.778 12.2426C26.0765 12.2426 25.2609 11.838 24.6899 11.3952L23.9858 13.344C24.5681 13.7954 25.2421 14.0934 26.0005 14.2046V15.497H27.9635V14.0901C29.1587 13.7095 29.9237 12.7193 29.9237 11.5354C29.9237 9.87815 28.7011 9.17063 27.6358 8.73926Z" fill="#C1BBEB"/>
</svg>
