<svg width="40" height="40" viewBox="0 0 40 40" fill="none" xmlns="http://www.w3.org/2000/svg">
<rect opacity="0.1" width="40" height="40" rx="20" fill="#4D44B5"/>
<path d="M27.44 21C27.22 21 26.99 20.93 26.77 20.88C26.3245 20.7818 25.8866 20.6515 25.46 20.49C24.9961 20.3212 24.4861 20.33 24.0283 20.5146C23.5704 20.6992 23.1971 21.0466 22.98 21.49L22.76 21.94C21.786 21.3982 20.891 20.7252 20.1 19.94C19.3147 19.149 18.6418 18.254 18.1 17.28L18.52 17C18.9633 16.7829 19.3108 16.4095 19.4954 15.9517C19.68 15.4938 19.6888 14.9839 19.52 14.52C19.3612 14.0924 19.2309 13.6548 19.13 13.21C19.08 12.99 19.04 12.76 19.01 12.53C18.8885 11.8256 18.5196 11.1877 17.9696 10.7312C17.4196 10.2747 16.7247 10.0296 16.01 10.04H13.01C12.579 10.0359 12.1522 10.1248 11.7587 10.3005C11.3651 10.4762 11.0141 10.7347 10.7294 11.0583C10.4447 11.3819 10.2331 11.763 10.109 12.1757C9.98482 12.5884 9.95106 13.023 10.01 13.45C10.5427 17.6394 12.456 21.5319 15.4476 24.5126C18.4393 27.4934 22.3387 29.3925 26.53 29.91H26.91C27.6474 29.9111 28.3594 29.6405 28.91 29.15C29.2263 28.867 29.4791 28.5202 29.6514 28.1323C29.8238 27.7444 29.9119 27.3244 29.91 26.9V23.9C29.8977 23.2054 29.6448 22.5365 29.1943 22.0077C28.7439 21.4788 28.1238 21.1226 27.44 21ZM27.94 27C27.9398 27.142 27.9094 27.2823 27.8508 27.4116C27.7921 27.5409 27.7066 27.6563 27.6 27.75C27.4882 27.8465 27.3576 27.9185 27.2164 27.9616C27.0752 28.0046 26.9265 28.0177 26.78 28C23.0349 27.5198 19.5562 25.8065 16.8927 23.1303C14.2292 20.4541 12.5324 16.9673 12.07 13.22C12.0541 13.0735 12.068 12.9253 12.111 12.7844C12.1539 12.6434 12.225 12.5127 12.32 12.4C12.4137 12.2933 12.529 12.2078 12.6584 12.1492C12.7877 12.0906 12.928 12.0602 13.07 12.06H16.07C16.3025 12.0548 16.5296 12.1309 16.7121 12.2751C16.8946 12.4193 17.0212 12.6226 17.07 12.85C17.11 13.1233 17.16 13.3933 17.22 13.66C17.3355 14.1871 17.4892 14.7052 17.68 15.21L16.28 15.86C16.1603 15.9149 16.0526 15.9929 15.9631 16.0896C15.8737 16.1862 15.8042 16.2996 15.7586 16.4232C15.7131 16.5468 15.6925 16.6781 15.6978 16.8097C15.7032 16.9413 15.7345 17.0705 15.79 17.19C17.2292 20.2727 19.7072 22.7508 22.79 24.19C23.0334 24.29 23.3065 24.29 23.55 24.19C23.6747 24.1454 23.7893 24.0764 23.8871 23.9872C23.985 23.8979 24.0641 23.7901 24.12 23.67L24.74 22.27C25.2569 22.4549 25.7846 22.6085 26.32 22.73C26.5866 22.79 26.8566 22.84 27.13 22.88C27.3574 22.9288 27.5607 23.0553 27.7049 23.2378C27.8491 23.4204 27.9252 23.6474 27.92 23.88L27.94 27Z" fill="#4D44B5"/>
</svg>
