<svg width="40" height="40" viewBox="0 0 40 40" fill="none" xmlns="http://www.w3.org/2000/svg">
<path d="M26.1757 10.8749C26.1757 11.2187 26.1523 11.5624 26.1093 11.9023C26.1289 11.7656 26.1484 11.6249 26.164 11.4882C26.0703 12.1679 25.8906 12.8281 25.6289 13.4609C25.6796 13.3359 25.7343 13.2109 25.7851 13.0859C25.5234 13.7031 25.1875 14.2812 24.7773 14.8124C24.8593 14.707 24.9414 14.6015 25.0234 14.496C24.6171 15.0195 24.1445 15.4921 23.621 15.8984C23.7265 15.8163 23.832 15.7343 23.9375 15.6523C23.4062 16.0585 22.8281 16.3984 22.2109 16.6601C22.3359 16.6093 22.4609 16.5546 22.5859 16.5038C21.9531 16.7656 21.2929 16.9452 20.6132 17.039C20.75 17.0195 20.8906 16.9999 21.0273 16.9843C20.3437 17.0741 19.6562 17.0741 18.9726 16.9843C19.1093 17.0038 19.25 17.0234 19.3867 17.039C18.707 16.9452 18.0468 16.7656 17.414 16.5038C17.539 16.5546 17.664 16.6093 17.789 16.6601C17.1718 16.3984 16.5937 16.0624 16.0624 15.6523C16.1679 15.7343 16.2734 15.8163 16.3789 15.8984C15.8554 15.4921 15.3828 15.0195 14.9765 14.496C15.0585 14.6015 15.1406 14.707 15.2226 14.8124C14.8164 14.2812 14.4765 13.7031 14.2148 13.0859C14.2656 13.2109 14.3203 13.3359 14.371 13.4609C14.1093 12.8281 13.9296 12.1679 13.8359 11.4882C13.8554 11.6249 13.8749 11.7656 13.8906 11.9023C13.8007 11.2187 13.8007 10.5312 13.8906 9.84759C13.871 9.98431 13.8515 10.1249 13.8359 10.2617C13.9296 9.58196 14.1093 8.92181 14.371 8.28899C14.3203 8.41399 14.2656 8.53899 14.2148 8.66399C14.4765 8.04681 14.8124 7.46868 15.2226 6.93743C15.1406 7.0429 15.0585 7.14837 14.9765 7.25384C15.3828 6.7304 15.8554 6.25774 16.3789 5.85149C16.2734 5.93352 16.1679 6.01556 16.0624 6.09759C16.5937 5.69134 17.1718 5.35149 17.789 5.08977C17.664 5.14056 17.539 5.19524 17.414 5.24602C18.0468 4.98431 18.707 4.80462 19.3867 4.71087C19.25 4.7304 19.1093 4.74993 18.9726 4.76556C19.6562 4.67571 20.3437 4.67571 21.0273 4.76556C20.8906 4.74602 20.75 4.72649 20.6132 4.71087C21.2929 4.80462 21.9531 4.98431 22.5859 5.24602C22.4609 5.19524 22.3359 5.14056 22.2109 5.08977C22.8281 5.35149 23.4062 5.68743 23.9375 6.09759C23.832 6.01556 23.7265 5.93352 23.621 5.85149C24.1445 6.25774 24.6171 6.7304 25.0234 7.25384C24.9414 7.14837 24.8593 7.0429 24.7773 6.93743C25.1836 7.46868 25.5234 8.04681 25.7851 8.66399C25.7343 8.53899 25.6796 8.41399 25.6289 8.28899C25.8906 8.92181 26.0703 9.58196 26.164 10.2617C26.1445 10.1249 26.125 9.98431 26.1093 9.84759C26.1523 10.1874 26.1718 10.5312 26.1757 10.8749C26.1796 11.6913 26.8906 12.4765 27.7382 12.4374C28.582 12.3984 29.3046 11.7499 29.3007 10.8749C29.2929 9.00384 28.7304 7.08977 27.6289 5.56634C27.332 5.15618 27.0156 4.75384 26.664 4.39056C26.3085 4.02337 25.9179 3.70696 25.5117 3.39837C24.7734 2.83587 23.9492 2.42181 23.0742 2.10149C19.5468 0.808525 15.2929 1.96087 12.9062 4.86712C12.5781 5.26556 12.2656 5.67962 11.9999 6.12493C11.7343 6.56634 11.5273 7.03509 11.3359 7.51165C10.9765 8.39446 10.7929 9.33196 10.7187 10.2812C10.5742 12.1406 11.0585 14.082 12.0273 15.6757C12.9609 17.2148 14.371 18.5351 16.0195 19.2812C16.5039 19.4999 16.9999 19.7031 17.5156 19.8476C18.0273 19.9882 18.5468 20.0663 19.0742 20.1288C20.0351 20.2421 21.0156 20.164 21.9648 19.9726C25.5703 19.2382 28.5898 16.1327 29.1484 12.4882C29.2304 11.957 29.2929 11.4257 29.2929 10.8867C29.2968 10.0702 28.5703 9.28509 27.7304 9.32415C26.8867 9.35149 26.1757 9.99993 26.1757 10.8749ZM31.3593 35.3007C30.5937 35.3007 29.8281 35.3007 29.0625 35.3007C27.2382 35.3007 25.4179 35.3007 23.5937 35.3007C21.3984 35.3007 19.2031 35.3007 17.0039 35.3007C15.1093 35.3007 13.2148 35.3007 11.3164 35.3007C10.4296 35.3007 9.54291 35.3085 8.65619 35.3007C8.55854 35.3007 8.46088 35.2929 8.36713 35.2812C8.50385 35.3007 8.64447 35.3202 8.78119 35.3359C8.62494 35.3124 8.4765 35.2695 8.33197 35.2109C8.45697 35.2617 8.58197 35.3163 8.70697 35.3671C8.55072 35.3007 8.40619 35.2148 8.26947 35.1093C8.37494 35.1913 8.48041 35.2734 8.58588 35.3554C8.46869 35.2577 8.35932 35.1523 8.26557 35.0351C8.3476 35.1406 8.42963 35.246 8.51166 35.3515C8.40619 35.2148 8.32416 35.0702 8.25385 34.914C8.30463 35.039 8.35932 35.164 8.4101 35.289C8.3515 35.1445 8.31244 34.9921 8.2851 34.8398C8.30463 34.9765 8.32416 35.1171 8.33979 35.2538C8.27729 34.7812 8.32025 34.2812 8.32025 33.8046C8.32025 33.246 8.32025 32.6913 8.32025 32.1327C8.32025 31.7148 8.34369 31.3007 8.39838 30.8867C8.37885 31.0234 8.35932 31.164 8.34369 31.3007C8.45307 30.4999 8.664 29.7148 8.98041 28.9687C8.92963 29.0937 8.87494 29.2187 8.82416 29.3437C9.12885 28.6327 9.51947 27.9648 9.99213 27.3515C9.9101 27.457 9.82807 27.5624 9.74604 27.6679C10.2187 27.0624 10.7617 26.5156 11.371 26.0429C11.2656 26.1249 11.1601 26.207 11.0546 26.289C11.6679 25.8163 12.3359 25.4257 13.0468 25.121C12.9218 25.1718 12.7968 25.2265 12.6718 25.2773C13.4179 24.9648 14.1992 24.7499 15.0039 24.6406C14.8671 24.6601 14.7265 24.6796 14.5898 24.6952C15.1679 24.621 15.7421 24.6171 16.3242 24.6171C17.039 24.6171 17.7539 24.6171 18.4687 24.6171C20.1367 24.6171 21.8046 24.6171 23.4726 24.6171C24.1171 24.6171 24.7578 24.6132 25.4023 24.6952C25.2656 24.6757 25.125 24.6562 24.9882 24.6406C25.789 24.7499 26.5742 24.9609 27.3203 25.2773C27.1953 25.2265 27.0703 25.1718 26.9453 25.121C27.6562 25.4257 28.3242 25.8163 28.9375 26.289C28.832 26.207 28.7265 26.1249 28.6211 26.0429C29.2265 26.5156 29.7734 27.0585 30.2461 27.6679C30.164 27.5624 30.082 27.457 30 27.3515C30.4726 27.9648 30.8632 28.6327 31.1679 29.3437C31.1172 29.2187 31.0625 29.0937 31.0117 28.9687C31.3242 29.7148 31.539 30.496 31.6484 31.3007C31.6289 31.164 31.6093 31.0234 31.5937 30.8867C31.6679 31.4765 31.6718 32.0624 31.6718 32.6562C31.6718 33.3007 31.6718 33.9452 31.6718 34.5898C31.6718 34.8124 31.6796 35.0351 31.6523 35.2538C31.6718 35.1171 31.6914 34.9765 31.707 34.8398C31.6836 34.996 31.6406 35.1445 31.582 35.289C31.6328 35.164 31.6875 35.039 31.7382 34.914C31.6718 35.0702 31.5859 35.2148 31.4804 35.3515C31.5625 35.246 31.6445 35.1406 31.7265 35.0351C31.6289 35.1523 31.5234 35.2616 31.4062 35.3554C31.5117 35.2734 31.6171 35.1913 31.7226 35.1093C31.5859 35.2148 31.4414 35.2968 31.2851 35.3671C31.4101 35.3163 31.5351 35.2617 31.6601 35.2109C31.5156 35.2695 31.3632 35.3085 31.2109 35.3359C31.3476 35.3163 31.4882 35.2968 31.625 35.2812C31.539 35.2929 31.4492 35.2968 31.3593 35.3007C30.957 35.3046 30.5429 35.4726 30.2539 35.7577C29.9843 36.0273 29.7773 36.4726 29.7968 36.8632C29.8359 37.6992 30.4843 38.4374 31.3593 38.4257C32.8789 38.4023 34.2148 37.4101 34.6601 35.9531C34.8359 35.3749 34.7968 34.7538 34.7968 34.1601C34.7968 32.8007 34.8398 31.4531 34.6054 30.1054C34.2617 28.1327 33.2695 26.2773 31.9101 24.8202C30.5507 23.3632 28.7226 22.2929 26.789 21.8163C25.6796 21.5429 24.5625 21.4999 23.4296 21.4999C22.2656 21.4999 21.1054 21.4999 19.9414 21.4999C18.7929 21.4999 17.6484 21.4999 16.4999 21.4999C15.3398 21.4999 14.1874 21.5546 13.0585 21.8554C11.1406 22.3632 9.33588 23.4452 8.00385 24.914C6.6601 26.3945 5.68744 28.2538 5.37103 30.2382C5.16009 31.5702 5.20306 32.9062 5.20306 34.2499C5.20306 34.8671 5.16791 35.5117 5.39056 36.1015C5.67963 36.8593 6.14056 37.457 6.81635 37.9062C7.34369 38.2538 8.01166 38.4218 8.63666 38.4296C8.94135 38.4335 9.24604 38.4296 9.55072 38.4296C10.332 38.4296 11.1093 38.4296 11.8906 38.4296C12.9999 38.4296 14.1054 38.4296 15.2148 38.4296C16.5039 38.4296 17.7929 38.4296 19.082 38.4296C20.4062 38.4296 21.7265 38.4296 23.0507 38.4296C24.2617 38.4296 25.4687 38.4296 26.6796 38.4296C27.6289 38.4296 28.5781 38.4296 29.5234 38.4296C30.0664 38.4296 30.6093 38.4296 31.1523 38.4296C31.2226 38.4296 31.2929 38.4296 31.3632 38.4296C32.1797 38.4296 32.9648 37.7109 32.9257 36.8671C32.8867 36.0156 32.2382 35.3007 31.3593 35.3007Z" fill="#C1BBEB"/>
</svg>
